<svg width="32" height="38" viewBox="0 0 32 38" fill="none" xmlns="http://www.w3.org/2000/svg">
<circle cx="16" cy="22" r="14.5" stroke="#FAFAFA" stroke-width="3"/>
<path d="M15.9844 28.1094C14.1094 28.1094 12.4948 27.4271 11.1406 26.0625C9.79688 24.6979 9.125 23.0677 9.125 21.1719C9.125 19.2552 9.80208 17.6198 11.1562 16.2656C12.5104 14.9115 14.1458 14.2344 16.0625 14.2344C17.9792 14.2344 19.6146 14.9115 20.9688 16.2656C22.3229 17.6198 23 19.25 23 21.1562C23 23.1042 22.3177 24.75 20.9531 26.0938C19.599 27.4375 17.9427 28.1094 15.9844 28.1094ZM16 26.9531C17.625 26.9531 19.0052 26.3906 20.1406 25.2656C21.276 24.1406 21.8438 22.7708 21.8438 21.1562C21.8438 19.5729 21.276 18.2188 20.1406 17.0938C19.0156 15.9583 17.6562 15.3906 16.0625 15.3906C14.4688 15.3906 13.1042 15.9583 11.9688 17.0938C10.8438 18.2188 10.2812 19.5781 10.2812 21.1719C10.2812 22.7448 10.8438 24.1042 11.9688 25.25C13.0938 26.3854 14.4375 26.9531 16 26.9531Z" fill="#737373"/>
</svg>
