<svg width="14" height="15" viewBox="0 0 14 15" fill="none" xmlns="http://www.w3.org/2000/svg">
<path d="M6.98438 14.1094C5.10938 14.1094 3.49479 13.4271 2.14062 12.0625C0.796875 10.6979 0.125 9.06771 0.125 7.17188C0.125 5.25521 0.802083 3.61979 2.15625 2.26562C3.51042 0.911458 5.14583 0.234375 7.0625 0.234375C8.97917 0.234375 10.6146 0.911458 11.9688 2.26562C13.3229 3.61979 14 5.25 14 7.15625C14 9.10417 13.3177 10.75 11.9531 12.0938C10.599 13.4375 8.94271 14.1094 6.98438 14.1094ZM7 12.9531C8.625 12.9531 10.0052 12.3906 11.1406 11.2656C12.276 10.1406 12.8438 8.77083 12.8438 7.15625C12.8438 5.57292 12.276 4.21875 11.1406 3.09375C10.0156 1.95833 8.65625 1.39062 7.0625 1.39062C5.46875 1.39062 4.10417 1.95833 2.96875 3.09375C1.84375 4.21875 1.28125 5.57812 1.28125 7.17188C1.28125 8.74479 1.84375 10.1042 2.96875 11.25C4.09375 12.3854 5.4375 12.9531 7 12.9531Z" fill="#737373"/>
</svg>
